<svg xmlns="http://www.w3.org/2000/svg" viewBox="0 0 200 200">
  <rect width="200" height="200" rx="24" fill="#1a1a2e"/>
  <!-- Map pin -->
  <g transform="translate(100,90)" fill="none" stroke="#f59e0b" stroke-width="5" stroke-linecap="round" stroke-linejoin="round">
    <path d="M0,30 C0,30 -35,-5 -35,-25 C-35,-45 -18,-55 0,-55 C18,-55 35,-45 35,-25 C35,-5 0,30 0,30Z" fill="#f59e0b" opacity="0.15"/>
    <circle cx="0" cy="-25" r="12" fill="#f59e0b" opacity="0.3" stroke="#f59e0b"/>
  </g>
  <!-- Route dots -->
  <g fill="#f59e0b" opacity="0.6">
    <circle cx="65" cy="145" r="3"/>
    <circle cx="80" cy="150" r="3"/>
    <circle cx="95" cy="148" r="3"/>
    <circle cx="110" cy="152" r="3"/>
    <circle cx="125" cy="147" r="3"/>
    <circle cx="140" cy="145" r="3"/>
  </g>
  <!-- Route line -->
  <path d="M65,145 Q80,155 95,148 Q110,140 125,147 Q135,150 140,145" fill="none" stroke="#f59e0b" stroke-width="2" opacity="0.4"/>
  <text x="100" y="185" text-anchor="middle" font-family="monospace" font-size="14" fill="#f59e0b" opacity="0.8">PATHFINDER</text>
</svg>
