<svg xmlns="http://www.w3.org/2000/svg" viewBox="0 0 520 120" fill="#14477A">
  <!-- P -->
  <path d="M0,10 h25 v100 h-25 v-40 h15 c20,0 35,-5 35,-30 c0,-25 -15,-30 -35,-30 h-15 z M25,20 h10 c12,0 20,5 20,20 c0,15 -8,20 -20,20 h-10 z"/>
  <!-- O with 8-point star -->
  <g transform="translate(85,0)">
    <path d="M35,10 c-25,0 -40,20 -40,50 c0,30 15,50 40,50 c25,0 40,-20 40,-50 c0,-30 -15,-50 -40,-50 z M35,25 c15,0 22,13 22,35 c0,22 -7,35 -22,35 c-15,0 -22,-13 -22,-35 c0,-22 7,-35 22,-35 z"/>
    <!-- 8-point star inside O -->
    <g transform="translate(35,60)">
      <polygon points="0,-16 3,-5 12,-10 6,-2 16,0 6,2 12,10 3,5 0,16 -3,5 -12,10 -6,2 -16,0 -6,-2 -12,-10 -3,-5" fill="#14477A"/>
    </g>
  </g>
  <!-- L -->
  <path d="M170,10 h25 v85 h35 v15 h-60 z"/>
  <!-- A -->
  <path d="M250,110 h-25 l30,-100 h25 l30,100 h-25 l-5,-20 h-25 z M257,75 h18 l-9,-40 z"/>
  <!-- R -->
  <path d="M320,10 h40 c20,0 30,10 30,30 c0,15 -8,25 -22,28 l25,42 h-28 l-22,-40 h-0 v40 h-25 z M345,20 v30 h12 c12,0 18,-5 18,-15 c0,-10 -6,-15 -18,-15 z"/>
  <!-- I -->
  <path d="M405,10 h25 v100 h-25 z"/>
  <!-- S -->
  <path d="M470,30 c-5,-8 -12,-12 -20,-12 c-10,0 -16,5 -16,14 c0,10 8,14 20,20 c15,8 25,15 25,32 c0,20 -15,30 -35,30 c-15,0 -25,-7 -32,-18 l15,-12 c5,8 12,15 20,15 c10,0 17,-5 17,-15 c0,-10 -8,-14 -20,-20 c-15,-8 -25,-16 -25,-32 c0,-18 14,-28 33,-28 c13,0 23,5 30,15 z"/>
</svg>
